<svg xmlns="http://www.w3.org/2000/svg" xmlns:xlink="http://www.w3.org/1999/xlink" width="163.018" height="164.386" viewBox="0 0 163.018 164.386"><defs><clipPath id="a"><path d="M71.97,102.608c0,45.393,36.491,82.193,81.509,82.193s81.509-36.8,81.509-82.193-36.493-82.193-81.509-82.193S71.97,57.214,71.97,102.608" transform="translate(-71.97 -20.414)" fill="none"/></clipPath><linearGradient id="b" x1="-0.711" y1="1.099" x2="-0.701" y2="1.099" gradientUnits="objectBoundingBox"><stop offset="0" stop-color="#de00ea"/><stop offset="1" stop-color="#ee2a7b"/></linearGradient><clipPath id="c"><rect width="136.886" height="22.623" fill="none" stroke="rgba(0,0,0,0)" stroke-width="1"/></clipPath><clipPath id="e"><path d="M71.97,27.117a6.647,6.647,0,1,0,6.647-6.7,6.675,6.675,0,0,0-6.647,6.7" transform="translate(-71.97 -20.414)" fill="none" stroke="rgba(0,0,0,0)" stroke-width="1"/></clipPath></defs><g transform="translate(-2741.902 -835.877)"><g transform="matrix(1, 0, 0, 1, 2669.932, 815.462)"><g transform="translate(71.97 20.414)" clip-path="url(#a)"><rect width="230.542" height="232.478" transform="translate(-81.509 82.193) rotate(-45)" fill="url(#b)"/></g></g><g transform="matrix(1, 0, 0, 1, 2755.182, 907)" clip-path="url(#c)"><g transform="translate(0 0)"><g clip-path="url(#c)"><path d="M11.516,5.244a5.928,5.928,0,0,1,0,10.867,9.368,9.368,0,0,1-3.919.755H4.7v4.381H0V4.489H7.6a9.425,9.425,0,0,1,3.92.755M9.5,12.5a2.253,2.253,0,0,0,.736-1.805A2.3,2.3,0,0,0,9.5,8.872a3.223,3.223,0,0,0-2.184-.646H4.7v4.906H7.311A3.274,3.274,0,0,0,9.495,12.5Z" transform="translate(0 -3.484)" fill="#fff" stroke="rgba(0,0,0,0)" stroke-width="1"/><rect width="4.509" height="17.763" transform="translate(31.646)" fill="#fff" stroke="rgba(0,0,0,0)" stroke-width="1"/><path d="M180.327,13.214,179,14.579v3.184h-4.5V0h4.511V9.313l4.606-4.526h5.342l-5.342,5.555,5.793,7.421h-5.471Z" transform="translate(-135.411 0)" fill="#fff" stroke="rgba(0,0,0,0)" stroke-width="1"/><path d="M253.929,21.873a5.678,5.678,0,0,1,1.686,4.513v7.206h-4.2V31.917q-.974,1.89-3.8,1.89a5.922,5.922,0,0,1-2.589-.529,3.853,3.853,0,0,1-1.649-1.424,3.8,3.8,0,0,1-.559-2.047,3.331,3.331,0,0,1,1.4-2.861,7.385,7.385,0,0,1,4.32-1.018H251.1q-.118-2.058-2.73-2.058a6.224,6.224,0,0,0-1.874.3,5,5,0,0,0-1.611.827l-1.523-3.089a8.355,8.355,0,0,1,2.6-1.112,12.256,12.256,0,0,1,3.075-.4,7.234,7.234,0,0,1,4.889,1.475m-3.679,8.679a2.121,2.121,0,0,0,.854-1.126V28.3h-1.946q-1.969,0-1.969,1.318a1.159,1.159,0,0,0,.451.957,1.927,1.927,0,0,0,1.235.361,2.491,2.491,0,0,0,1.375-.385" transform="translate(-188.431 -15.829)" fill="#fff" stroke="rgba(0,0,0,0)" stroke-width="1"/><path d="M325.138,5.244a5.928,5.928,0,0,1,0,10.867,9.364,9.364,0,0,1-3.917.755h-2.9v4.381h-4.7V4.489h7.6a9.408,9.408,0,0,1,3.917.755M323.121,12.5a2.26,2.26,0,0,0,.736-1.805,2.3,2.3,0,0,0-.736-1.82,3.229,3.229,0,0,0-2.186-.646h-2.61v4.906h2.61a3.283,3.283,0,0,0,2.186-.635" transform="translate(-243.377 -3.484)" fill="#fff" stroke="rgba(0,0,0,0)" stroke-width="1"/><path d="M397.016,21.873a5.678,5.678,0,0,1,1.686,4.513v7.206h-4.2V31.917q-.972,1.89-3.8,1.89a5.906,5.906,0,0,1-2.587-.529,3.858,3.858,0,0,1-1.651-1.424,3.8,3.8,0,0,1-.559-2.047,3.331,3.331,0,0,1,1.4-2.861,7.385,7.385,0,0,1,4.32-1.018h2.565q-.12-2.058-2.73-2.058a6.247,6.247,0,0,0-1.876.3,5.018,5.018,0,0,0-1.611.827l-1.523-3.089a8.35,8.35,0,0,1,2.6-1.112,12.242,12.242,0,0,1,3.074-.4,7.237,7.237,0,0,1,4.891,1.475m-3.686,8.679a2.132,2.132,0,0,0,.856-1.126V28.3h-1.942q-1.969,0-1.969,1.318a1.163,1.163,0,0,0,.449.957,1.927,1.927,0,0,0,1.235.361,2.491,2.491,0,0,0,1.371-.385" transform="translate(-299.467 -15.829)" fill="#fff" stroke="rgba(0,0,0,0)" stroke-width="1"/><path d="M461.846,20.853a6.773,6.773,0,0,1,2.529-.442V24.5a8.962,8.962,0,0,0-1.022-.072,3.133,3.133,0,0,0-2.266.789,3.217,3.217,0,0,0-.82,2.419V33.6h-4.509V20.625h4.3v1.556a4.2,4.2,0,0,1,1.792-1.329" transform="translate(-353.675 -15.838)" fill="#fff" stroke="rgba(0,0,0,0)" stroke-width="1"/><path d="M508.492,23.79a4.456,4.456,0,0,1-1.387.542,7.633,7.633,0,0,1-1.745.191,5.514,5.514,0,0,1-3.87-1.244,4.8,4.8,0,0,1-1.353-3.711V15.221h-1.874v-3.4h1.874V8.446h4.511V11.82h2.943v3.4h-2.943V19.53a1.536,1.536,0,0,0,.367,1.083,1.283,1.283,0,0,0,.986.4,2.365,2.365,0,0,0,1.377-.408Z" transform="translate(-386.658 -6.554)" fill="#fff" stroke="rgba(0,0,0,0)" stroke-width="1"/><path d="M558.25,21.373l-5.549,13.5a7.306,7.306,0,0,1-2.374,3.363,5.859,5.859,0,0,1-3.419.969,6.872,6.872,0,0,1-2.053-.323,4.9,4.9,0,0,1-1.674-.85l1.566-3.183a2.747,2.747,0,0,0,.915.561,3.021,3.021,0,0,0,1.074.2,1.956,1.956,0,0,0,1.058-.264,2.024,2.024,0,0,0,.7-.838l-5.508-13.144h4.629l3.158,7.925,3.181-7.925Z" transform="translate(-421.365 -16.586)" fill="#fff" stroke="rgba(0,0,0,0)" stroke-width="1"/></g></g><g transform="translate(16.12 4.573)"><g clip-path="url(#e)"><rect width="18.8" height="18.958" transform="translate(-6.647 6.703) rotate(-45)" fill="#fff" stroke="rgba(0,0,0,0)" stroke-width="1"/></g></g></g></g></svg>